<mxfile host="app.diagrams.net" agent="Mozilla/5.0 (Windows NT 10.0; Win64; x64) AppleWebKit/537.36 (KHTML, like Gecko) Chrome/137.0.0.0 Safari/537.36" version="27.1.6">
  <diagram name="第 1 页" id="Wi3l6DF4ZGBBYkFDvaLa">
    <mxGraphModel dx="2253" dy="743" grid="1" gridSize="10" guides="1" tooltips="1" connect="1" arrows="1" fold="1" page="1" pageScale="1" pageWidth="827" pageHeight="1169" math="0" shadow="0">
      <root>
        <mxCell id="0" />
        <mxCell id="1" parent="0" />
        <mxCell id="hiedMb1nIKJ2MyAVj1bg-3" style="rounded=0;orthogonalLoop=1;jettySize=auto;html=1;exitX=0.25;exitY=1;exitDx=0;exitDy=0;entryX=0.5;entryY=0;entryDx=0;entryDy=0;" edge="1" parent="1" source="hiedMb1nIKJ2MyAVj1bg-1" target="hiedMb1nIKJ2MyAVj1bg-2">
          <mxGeometry relative="1" as="geometry" />
        </mxCell>
        <mxCell id="hiedMb1nIKJ2MyAVj1bg-5" style="edgeStyle=none;rounded=0;orthogonalLoop=1;jettySize=auto;html=1;exitX=0.75;exitY=1;exitDx=0;exitDy=0;entryX=0.5;entryY=0;entryDx=0;entryDy=0;" edge="1" parent="1" source="hiedMb1nIKJ2MyAVj1bg-1" target="hiedMb1nIKJ2MyAVj1bg-4">
          <mxGeometry relative="1" as="geometry" />
        </mxCell>
        <mxCell id="hiedMb1nIKJ2MyAVj1bg-1" value="&lt;font style=&quot;font-size: 30px;&quot;&gt;布局&lt;/font&gt;" style="whiteSpace=wrap;html=1;" vertex="1" parent="1">
          <mxGeometry x="110" y="240" width="120" height="60" as="geometry" />
        </mxCell>
        <mxCell id="hiedMb1nIKJ2MyAVj1bg-2" value="&lt;font style=&quot;font-size: 20px;&quot;&gt;选项：切换目录结构&lt;/font&gt;" style="whiteSpace=wrap;html=1;" vertex="1" parent="1">
          <mxGeometry x="-30" y="400" width="120" height="90" as="geometry" />
        </mxCell>
        <mxCell id="hiedMb1nIKJ2MyAVj1bg-4" value="&lt;span style=&quot;font-size: 20px;&quot;&gt;信息显示&lt;/span&gt;" style="whiteSpace=wrap;html=1;" vertex="1" parent="1">
          <mxGeometry x="190" y="400" width="120" height="60" as="geometry" />
        </mxCell>
        <mxCell id="hiedMb1nIKJ2MyAVj1bg-8" style="edgeStyle=none;rounded=0;orthogonalLoop=1;jettySize=auto;html=1;exitX=0.5;exitY=0;exitDx=0;exitDy=0;entryX=0.25;entryY=1;entryDx=0;entryDy=0;" edge="1" parent="1" source="hiedMb1nIKJ2MyAVj1bg-6" target="hiedMb1nIKJ2MyAVj1bg-2">
          <mxGeometry relative="1" as="geometry" />
        </mxCell>
        <mxCell id="hiedMb1nIKJ2MyAVj1bg-6" value="&lt;font style=&quot;font-size: 20px;&quot;&gt;Radio&lt;/font&gt;" style="whiteSpace=wrap;html=1;" vertex="1" parent="1">
          <mxGeometry x="-140" y="560" width="120" height="60" as="geometry" />
        </mxCell>
        <mxCell id="hiedMb1nIKJ2MyAVj1bg-10" style="edgeStyle=none;rounded=0;orthogonalLoop=1;jettySize=auto;html=1;exitX=0.5;exitY=0;exitDx=0;exitDy=0;entryX=0.75;entryY=1;entryDx=0;entryDy=0;" edge="1" parent="1" source="hiedMb1nIKJ2MyAVj1bg-9" target="hiedMb1nIKJ2MyAVj1bg-2">
          <mxGeometry relative="1" as="geometry" />
        </mxCell>
        <mxCell id="hiedMb1nIKJ2MyAVj1bg-9" value="&lt;span style=&quot;font-size: 20px;&quot;&gt;Event_Key&lt;/span&gt;" style="whiteSpace=wrap;html=1;" vertex="1" parent="1">
          <mxGeometry x="10" y="560" width="120" height="60" as="geometry" />
        </mxCell>
        <mxCell id="hiedMb1nIKJ2MyAVj1bg-13" style="edgeStyle=none;rounded=0;orthogonalLoop=1;jettySize=auto;html=1;exitX=0.25;exitY=1;exitDx=0;exitDy=0;entryX=0.5;entryY=0;entryDx=0;entryDy=0;" edge="1" parent="1" source="hiedMb1nIKJ2MyAVj1bg-11" target="hiedMb1nIKJ2MyAVj1bg-12">
          <mxGeometry relative="1" as="geometry" />
        </mxCell>
        <mxCell id="hiedMb1nIKJ2MyAVj1bg-11" value="&lt;font style=&quot;font-size: 30px;&quot;&gt;存储&lt;/font&gt;" style="whiteSpace=wrap;html=1;" vertex="1" parent="1">
          <mxGeometry x="640" y="240" width="120" height="60" as="geometry" />
        </mxCell>
        <mxCell id="hiedMb1nIKJ2MyAVj1bg-12" value="&lt;span style=&quot;font-size: 20px;&quot;&gt;类型&lt;br&gt;（文件夹）&lt;/span&gt;" style="whiteSpace=wrap;html=1;" vertex="1" parent="1">
          <mxGeometry x="520" y="400" width="120" height="60" as="geometry" />
        </mxCell>
        <mxCell id="hiedMb1nIKJ2MyAVj1bg-15" style="edgeStyle=none;rounded=0;orthogonalLoop=1;jettySize=auto;html=1;exitX=0.5;exitY=0;exitDx=0;exitDy=0;entryX=0.25;entryY=1;entryDx=0;entryDy=0;" edge="1" parent="1" source="hiedMb1nIKJ2MyAVj1bg-14" target="hiedMb1nIKJ2MyAVj1bg-4">
          <mxGeometry relative="1" as="geometry" />
        </mxCell>
        <mxCell id="hiedMb1nIKJ2MyAVj1bg-14" value="&lt;span style=&quot;font-size: 20px;&quot;&gt;Textbox1&lt;/span&gt;" style="whiteSpace=wrap;html=1;" vertex="1" parent="1">
          <mxGeometry x="150" y="560" width="120" height="60" as="geometry" />
        </mxCell>
        <mxCell id="hiedMb1nIKJ2MyAVj1bg-17" style="edgeStyle=none;rounded=0;orthogonalLoop=1;jettySize=auto;html=1;exitX=0.5;exitY=0;exitDx=0;exitDy=0;entryX=0.75;entryY=1;entryDx=0;entryDy=0;" edge="1" parent="1" source="hiedMb1nIKJ2MyAVj1bg-16" target="hiedMb1nIKJ2MyAVj1bg-4">
          <mxGeometry relative="1" as="geometry" />
        </mxCell>
        <mxCell id="hiedMb1nIKJ2MyAVj1bg-16" value="&lt;span style=&quot;font-size: 20px;&quot;&gt;Textbox2&lt;/span&gt;" style="whiteSpace=wrap;html=1;" vertex="1" parent="1">
          <mxGeometry x="300" y="560" width="120" height="60" as="geometry" />
        </mxCell>
        <mxCell id="hiedMb1nIKJ2MyAVj1bg-19" style="edgeStyle=none;rounded=0;orthogonalLoop=1;jettySize=auto;html=1;exitX=0.5;exitY=0;exitDx=0;exitDy=0;entryX=0.5;entryY=1;entryDx=0;entryDy=0;" edge="1" parent="1" source="hiedMb1nIKJ2MyAVj1bg-18" target="hiedMb1nIKJ2MyAVj1bg-14">
          <mxGeometry relative="1" as="geometry" />
        </mxCell>
        <mxCell id="hiedMb1nIKJ2MyAVj1bg-18" value="&lt;span style=&quot;font-size: 20px;&quot;&gt;实现&lt;/span&gt;" style="whiteSpace=wrap;html=1;" vertex="1" parent="1">
          <mxGeometry x="150" y="680" width="120" height="60" as="geometry" />
        </mxCell>
        <mxCell id="hiedMb1nIKJ2MyAVj1bg-20" value="&lt;span style=&quot;font-size: 20px;&quot;&gt;Python&lt;br&gt;源文件&lt;/span&gt;" style="whiteSpace=wrap;html=1;" vertex="1" parent="1">
          <mxGeometry x="160" y="870" width="120" height="60" as="geometry" />
        </mxCell>
        <mxCell id="hiedMb1nIKJ2MyAVj1bg-21" value="&lt;span style=&quot;font-size: 20px;&quot;&gt;结构配置&lt;/span&gt;" style="whiteSpace=wrap;html=1;" vertex="1" parent="1">
          <mxGeometry x="310" y="870" width="120" height="60" as="geometry" />
        </mxCell>
      </root>
    </mxGraphModel>
  </diagram>
</mxfile>
